<?xml version="1.0" standalone="no"?>
<!DOCTYPE svg PUBLIC "-//W3C//DTD SVG 20010904//EN"
 "http://www.w3.org/TR/2001/REC-SVG-20010904/DTD/svg10.dtd">
<svg version="1.0" xmlns="http://www.w3.org/2000/svg"
 width="638.000000pt" height="281.000000pt" viewBox="0 0 638.000000 281.000000"
 preserveAspectRatio="xMidYMid meet">

<g transform="translate(0.000000,281.000000) scale(0.100000,-0.100000)"
fill="#000000" stroke="none">
<path d="M520 1385 l0 -1085 175 87 175 88 0 219 0 220 62 148 c56 132 64 145
74 125 6 -12 53 -137 104 -277 52 -140 95 -256 96 -258 3 -5 294 142 294 150
0 4 -68 172 -151 375 -83 202 -151 375 -151 383 0 8 90 214 201 457 110 243
201 444 201 448 0 3 -84 4 -187 3 l-187 -3 -176 -392 -175 -393 -3 395 -2 395
-175 0 -175 0 0 -1085z"/>
<path d="M1930 1596 c0 -77 -2 -85 -21 -91 -28 -9 -59 -63 -59 -104 0 -27 9
-42 40 -72 l40 -38 0 -81 0 -80 35 0 35 0 0 85 c0 73 3 86 18 91 9 3 31 12 49
19 l32 14 41 -77 c59 -110 99 -148 173 -166 26 -6 27 -5 27 34 0 28 -4 40 -15
40 -29 0 -84 62 -125 141 l-42 81 20 21 c38 42 81 123 97 182 21 84 21 85 -25
85 -37 0 -40 -2 -40 -27 -1 -40 -22 -94 -60 -153 l-32 -50 -27 19 c-14 10 -39
23 -56 28 -30 10 -30 10 -33 96 l-3 87 -34 0 -35 0 0 -84z m111 -180 l23 -15
-37 -16 c-69 -29 -120 -8 -95 38 8 16 18 18 48 14 21 -3 49 -12 61 -21z"/>
<path d="M3063 1561 c-26 -16 -32 -17 -37 -5 -3 8 -19 14 -41 14 l-35 0 0
-221 0 -220 38 3 37 3 5 158 5 159 28 24 c40 34 108 34 142 -1 24 -24 25 -28
25 -185 l0 -160 40 0 40 0 0 145 c0 192 16 225 109 225 74 0 91 -43 91 -238
l0 -133 38 3 37 3 -1 155 c-1 172 -9 212 -55 256 -28 27 -36 29 -102 29 -58 0
-78 -4 -102 -22 l-30 -21 -29 21 c-43 30 -160 35 -203 8z"/>
<path d="M3773 1561 c-44 -21 -68 -49 -83 -100 -9 -31 -8 -31 30 -31 33 0 41
4 52 28 18 37 79 57 130 42 43 -12 68 -43 68 -83 0 -24 -3 -28 -17 -22 -10 4
-50 9 -89 12 -127 10 -194 -40 -194 -144 0 -46 34 -97 80 -120 50 -25 136 -23
183 4 36 22 37 22 37 3 0 -17 7 -20 40 -20 l40 0 0 89 0 89 30 7 c27 6 30 10
30 47 0 39 -1 39 -30 33 -28 -6 -30 -5 -30 22 0 16 -10 49 -22 73 -42 82 -158
114 -255 71z m180 -246 c46 -18 -5 -99 -71 -111 -116 -22 -184 78 -82 120 18
7 127 0 153 -9z"/>
<path d="M4320 1569 c-13 -6 -33 -17 -42 -26 -17 -15 -18 -15 -18 5 0 18 -6
22 -35 22 l-35 0 0 -220 0 -220 34 0 34 0 4 143 c5 186 22 215 133 227 49 5
50 5 53 43 l3 37 -53 -1 c-29 0 -64 -5 -78 -10z"/>
<path d="M4540 1558 c-48 -25 -75 -57 -86 -100 -6 -27 -5 -28 32 -28 33 0 42
5 56 29 21 38 76 55 130 41 43 -12 68 -42 68 -83 0 -26 -3 -28 -22 -23 -50 15
-154 18 -193 4 -78 -26 -111 -130 -65 -206 48 -78 188 -95 257 -30 l23 21 0
-26 c0 -25 3 -27 40 -27 l40 0 0 89 c0 86 1 89 25 95 21 5 25 12 25 46 0 37
-2 40 -23 35 -20 -5 -23 -1 -34 45 -7 28 -21 64 -32 79 -43 61 -161 79 -241
39z m156 -239 c35 -9 44 -16 44 -33 0 -42 -66 -86 -128 -86 -51 0 -92 31 -92
70 0 53 76 74 176 49z"/>
<path d="M5074 1566 c-18 -8 -37 -22 -43 -33 -9 -16 -10 -15 -11 10 0 25 -3
27 -40 27 l-40 0 0 -220 0 -220 39 0 40 0 3 151 3 151 37 34 c30 27 46 34 77
34 22 0 51 -5 64 -11 45 -21 52 -44 55 -206 l4 -153 40 0 40 0 -4 163 c-3 138
-6 168 -24 202 -37 73 -155 108 -240 71z"/>
<path d="M2452 1398 c2 -146 6 -178 21 -203 33 -53 65 -69 142 -73 61 -3 74
-1 107 21 34 24 36 24 41 6 4 -14 14 -19 41 -19 l36 0 0 221 0 220 -37 -3 -38
-3 -5 -145 c-3 -94 -10 -153 -18 -168 -20 -35 -86 -61 -129 -51 -76 17 -92 61
-93 252 l0 117 -36 0 -36 0 4 -172z"/>
</g>
</svg>
